<svg width="520" height="129" viewBox="0 0 520 129" fill="none" xmlns="http://www.w3.org/2000/svg">
<path d="M342.78 87.6991C340.58 89.4991 338.58 91.4991 336.28 92.9991C329.48 97.0991 322.08 97.9991 314.48 96.3991C309.48 95.3991 304.88 93.3991 300.88 90.0991C294.08 84.6991 290.18 77.5991 288.78 69.0991C286.28 53.8991 294.18 37.0991 309.38 31.6991C321.28 27.4991 332.18 28.9991 341.68 37.7991C341.98 38.0991 342.38 38.2991 343.18 38.7991C343.18 37.0991 343.18 35.5991 343.18 34.1991C343.08 32.0991 344.18 31.1991 346.18 31.1991C348.68 31.1991 351.18 31.1991 353.68 31.1991C355.68 31.1991 356.58 32.2991 356.68 34.0991C356.68 34.5991 356.68 35.0991 356.68 35.5991C356.68 55.0991 356.68 74.6991 356.68 94.1991C356.68 104.499 353.38 113.399 345.28 120.099C340.68 123.899 335.48 126.599 329.38 127.199C325.08 127.599 320.78 128.499 316.58 128.099C307.18 127.299 298.48 124.499 291.18 117.999C289.68 116.599 289.28 115.499 290.78 113.799C292.78 111.499 294.68 109.099 296.58 106.699C297.78 105.199 298.98 105.299 300.18 106.499C307.88 114.499 317.38 116.299 327.88 114.399C334.38 113.199 340.38 108.699 341.78 100.899C342.58 96.4991 342.98 92.0991 343.48 87.6991C343.28 87.7991 343.08 87.6991 342.78 87.6991ZM323.08 84.1991C335.48 84.0991 342.98 75.5991 342.98 63.7991C342.98 52.1991 335.78 42.7991 322.88 42.7991C311.08 42.7991 303.08 50.9991 303.08 63.7991C302.98 77.0991 311.98 84.2991 323.08 84.1991Z" fill="white"/>
<path d="M112.38 79.2991C93.18 79.8991 77.6801 63.1991 77.9801 45.2991C78.1801 26.8991 93.5799 10.9991 113.28 11.3991C130.88 11.6991 146.98 25.9991 146.88 45.8991C146.78 64.5991 130.98 79.8991 112.38 79.2991ZM112.98 66.3991C123.18 66.9991 131.28 58.9991 132.08 49.5991C132.58 43.9991 132.58 38.4991 129.48 33.4991C125.18 26.4991 118.68 24.2991 111.08 24.5991C107.58 24.6991 104.08 25.6991 100.98 27.7991C92.5801 33.4991 90.68 46.0991 94.58 55.1991C97.78 62.8991 103.98 66.3991 112.98 66.3991Z" fill="white"/>
<path d="M400.38 37.4992C403.28 35.5992 405.68 33.4992 408.48 32.1992C413.88 29.7992 419.38 28.8992 425.48 30.0992C432.28 31.4992 437.18 34.8992 440.68 40.5992C442.88 44.1992 443.98 48.1992 444.08 52.3992C444.18 65.8992 444.08 79.2992 444.18 92.7992C444.18 95.1992 442.98 96.0992 440.78 96.0992C438.48 96.1992 436.08 96.1992 433.78 96.0992C430.78 95.9992 430.18 95.2992 430.18 92.2992C430.18 80.1992 430.18 67.9992 430.18 55.8992C430.18 50.4992 427.88 46.2992 422.98 43.7992C421.68 43.0992 419.98 42.9992 418.38 42.7992C408.08 41.6992 401.58 47.4992 400.68 56.8992C400.18 61.9992 400.18 67.1992 400.08 72.2992C399.98 78.8992 400.08 85.5992 399.98 92.2992C399.98 95.2992 399.18 95.9992 396.28 96.0992C394.08 96.0992 391.78 96.0992 389.58 96.0992C387.38 96.0992 386.38 95.0992 386.48 92.8992C386.58 89.6992 386.48 86.5992 386.48 83.3992C386.48 67.3992 386.48 51.2992 386.48 35.2992C386.48 31.3992 386.88 31.0992 390.78 31.0992C392.48 31.0992 394.08 31.0992 395.78 31.0992C399.28 31.0992 399.78 31.5992 399.98 35.0992C400.18 35.9992 400.28 36.6992 400.38 37.4992Z" fill="white"/>
<path d="M193.38 97.6991C184.28 97.7991 176.08 95.6991 170.08 88.1991C168.48 86.1991 168.48 85.2991 170.48 83.5991C172.28 81.9991 174.18 80.4991 175.98 78.8991C177.48 77.5991 178.98 77.5991 180.38 78.9991C185.58 84.2991 191.88 85.5991 198.88 84.2991C202.48 83.5991 205.68 80.4991 205.28 77.2991C205.08 75.7991 204.18 73.9991 202.98 73.2991C200.78 71.8991 198.28 70.9991 195.78 70.2991C189.88 68.6991 183.88 67.6991 178.48 64.3991C172.48 60.6991 169.28 51.4991 171.68 44.8991C174.78 36.1991 181.28 32.0991 189.98 30.3991C198.48 28.6991 206.18 30.1991 213.18 35.0991C214.68 36.0991 215.68 37.6991 216.98 38.9991C218.68 40.4991 217.98 41.6991 216.58 42.7991C214.48 44.3991 212.38 45.9991 210.28 47.5991C208.88 48.5991 207.48 48.6991 206.18 47.1991C201.68 42.3991 195.98 42.4991 190.18 43.4991C187.58 43.8991 185.68 46.3991 185.48 48.6991C185.28 50.7991 186.88 53.4991 189.18 54.3991C192.48 55.5991 195.98 56.3991 199.28 57.5991C203.78 59.1991 208.58 60.3991 212.58 62.6991C218.08 65.8991 219.98 71.2991 219.78 77.7991C219.58 85.5991 215.78 90.7991 209.28 94.4991C204.28 97.0991 198.88 97.2991 193.38 97.6991Z" fill="white"/>
<path d="M494.98 42.3991C492.68 43.0991 490.28 43.4991 488.28 44.4991C485.38 45.9991 484.98 50.6991 487.48 52.9991C490.58 55.7991 494.48 56.5991 498.38 57.2991C505.08 58.5991 511.68 60.2991 516.38 65.7991C519.38 69.2991 519.98 73.4991 519.88 77.8991C519.78 86.0991 515.18 91.3991 508.18 94.9991C503.18 97.5991 497.58 97.7991 492.08 97.6991C484.28 97.5991 476.98 95.7991 471.38 89.6991C470.78 88.9991 470.08 88.3991 469.58 87.6991C468.68 86.4991 468.58 85.2991 469.88 84.1991C472.08 82.3991 474.18 80.4991 476.28 78.6991C477.58 77.5991 478.98 77.6991 480.08 78.8991C485.28 84.2991 491.58 85.7991 498.78 84.2991C502.78 83.3991 505.68 80.8991 505.28 77.0991C504.98 74.5991 503.48 73.1991 501.48 72.1991C499.58 71.2991 497.48 70.6991 495.38 70.1991C488.88 68.4991 482.08 67.4991 476.58 63.0991C471.78 59.2991 469.58 50.9991 471.48 45.2991C474.38 36.3991 480.78 32.2991 489.38 30.3991C497.88 28.4991 505.68 30.0991 512.78 34.8991C514.28 35.8991 515.38 37.4991 516.68 38.6991C518.38 40.2991 517.68 41.6991 516.08 42.7991C514.28 44.1991 512.38 45.3991 510.78 46.7991C508.88 48.3991 507.38 48.4991 505.58 46.6991C502.88 43.7991 499.28 42.6991 494.98 42.3991Z" fill="white"/>
<path d="M0.280029 63.899C0.780029 52.599 4.58018 42.799 14.1802 35.899C21.2802 30.799 29.3801 29.299 38.0801 30.099C45.0801 30.699 51.2801 33.0991 56.5801 37.6991C59.8801 40.5991 59.8802 40.7991 56.6802 43.6991C54.9802 45.1991 53.3802 46.899 51.6802 48.499C50.4802 49.699 49.2801 49.699 47.8801 48.599C46.0801 47.199 44.1802 45.7991 42.1802 44.6991C37.8802 42.1991 32.9801 42.699 28.5801 43.599C23.3801 44.599 19.58 48.2991 17.28 53.1991C14.58 59.0991 14.1802 65.1991 15.9802 71.299C17.7802 77.299 23.1802 83.399 30.4802 84.399C37.1802 85.299 43.2801 84.4991 48.0801 79.299C49.1801 78.1991 50.3801 77.899 51.5801 79.099C53.7801 81.199 55.8801 83.499 58.0801 85.599C59.2801 86.699 59.0801 87.699 58.0801 88.799C55.0801 91.699 51.8801 94.199 47.8801 95.599C41.0801 97.999 33.9802 98.399 26.9802 97.099C16.9802 95.299 9.28022 89.899 4.48022 80.799C1.68022 75.4991 0.480029 69.899 0.280029 63.899Z" fill="white"/>
<path d="M253.98 31.1992C255.18 31.1992 256.28 31.1992 257.48 31.1992C259.98 31.2992 261.08 32.4991 260.98 34.9991C260.88 54.0991 260.78 73.1991 260.78 92.2991C260.78 95.3991 260.18 96.0992 257.08 96.1992C254.88 96.1992 252.58 96.1992 250.38 96.1992C248.28 96.1992 247.18 95.2992 247.18 92.9992C247.18 73.4992 247.18 53.8991 247.18 34.3991C247.18 32.0991 248.28 30.9991 250.48 31.0991C251.68 31.1991 252.78 31.1992 253.98 31.1992Z" fill="white"/>
<path d="M114.48 96.5991C124.08 96.5991 133.58 96.5991 143.18 96.5991C146.98 96.5991 147.68 97.2991 147.68 101.099C147.68 101.999 147.68 102.899 147.68 103.799C147.68 107.399 147.08 108.099 143.48 108.099C124.18 108.099 104.88 108.099 85.5801 108.099C81.4801 108.099 80.9802 107.499 80.9802 103.499C80.9802 96.4991 80.9802 96.4991 87.9802 96.4991C96.7802 96.5991 105.58 96.5991 114.48 96.5991Z" fill="white"/>
<path d="M263.28 9.59911C263.28 14.6991 258.88 19.2991 253.98 19.2991C248.88 19.2991 244.18 14.6991 244.18 9.59911C244.18 4.19911 248.28 0.399107 253.88 0.0991065C259.08 -0.200894 263.88 4.39911 263.28 9.59911Z" fill="white"/>
</svg>
