<svg width="200" viewBox="0 0 619 190" fill="none" xmlns="http://www.w3.org/2000/svg">
<path d="M310.918 50.3128C310.918 59.4128 311.218 68.4128 310.818 77.5128C310.418 86.2128 305.618 92.5128 298.218 96.9128C293.018 100.013 287.318 100.613 281.618 99.7128C273.718 98.4128 267.518 94.1128 263.718 86.9128C261.518 82.6128 260.518 78.1128 260.518 73.3128C260.618 57.8128 260.518 42.4128 260.518 26.9128C260.518 15.3128 266.518 5.9128 277.618 2.3128C289.118 -1.3872 301.618 2.2128 308.018 13.8128C310.218 17.8128 311.018 21.9128 311.018 26.4128C310.818 34.3128 310.918 42.3128 310.918 50.3128Z" fill="white"/>
<path d="M492.518 166.313C532.918 166.313 573.318 166.313 613.618 166.313C618.118 166.313 618.118 166.313 618.118 170.913C618.118 172.713 618.018 174.613 618.118 176.413C618.318 178.813 617.118 179.713 614.818 179.713C614.118 179.713 613.318 179.713 612.618 179.713C532.518 179.713 452.418 179.713 372.318 179.713C366.718 179.713 366.718 179.713 366.718 174.213C366.718 172.413 366.718 170.513 366.718 168.713C366.718 167.113 367.518 166.213 369.218 166.313C370.218 166.313 371.218 166.313 372.218 166.313C412.418 166.313 452.418 166.313 492.518 166.313Z" fill="white"/>
<path d="M492.518 41.1127C452.218 41.1127 411.918 41.1127 371.618 41.1127C367.318 41.1127 366.918 40.7127 366.918 36.4127C366.918 34.3127 366.918 32.2127 366.918 30.2127C366.918 28.4127 367.818 27.4127 369.718 27.4127C370.418 27.4127 371.018 27.4127 371.718 27.4127C452.118 27.4127 532.518 27.4127 612.918 27.4127C613.818 27.4127 614.918 27.1127 615.618 27.5127C616.518 28.0127 617.818 29.0127 617.918 29.8127C618.218 32.7127 618.018 35.6127 618.018 38.5127C618.018 40.1127 617.118 41.0127 615.518 41.0127C614.518 41.0127 613.518 41.0127 612.518 41.0127C572.618 41.1127 532.618 41.1127 492.518 41.1127Z" fill="white"/>
<path d="M433.918 106.813C436.018 98.5127 438.118 90.2127 440.218 82.0127C440.618 80.2127 440.818 78.4127 441.618 76.8127C442.018 76.0127 443.318 75.1127 444.218 75.0127C449.018 74.8127 453.918 74.9127 458.718 74.9127C460.818 74.9127 461.418 75.9127 460.918 77.8127C459.718 81.7127 458.418 85.5127 457.118 89.3127C455.418 94.5127 453.618 99.6127 451.918 104.813C450.218 109.913 448.518 115.013 446.718 120.113C445.918 122.413 445.018 124.613 444.418 126.913C443.818 129.113 442.618 130.213 440.418 130.313C435.718 130.313 431.118 130.313 426.418 130.313C424.318 130.313 423.118 129.213 422.618 127.113C420.818 119.613 418.818 112.013 416.918 104.513C416.618 103.513 416.518 102.413 415.918 101.313C414.318 107.613 412.818 113.813 411.218 120.113C410.518 122.813 409.718 125.513 408.918 128.213C408.418 129.813 407.218 130.413 405.718 130.413C401.118 130.413 396.518 130.413 392.018 130.413C390.018 130.413 388.718 129.713 387.918 127.313C385.918 120.513 383.318 113.913 381.118 107.113C378.918 100.413 376.718 93.8127 374.618 87.1127C373.618 84.0127 372.618 81.0127 371.618 77.9127C371.018 75.9127 371.818 75.1127 373.818 75.1127C378.918 75.1127 384.018 75.1127 389.018 75.1127C390.918 75.1127 391.718 76.1127 392.118 78.0127C393.318 83.2127 394.718 88.4127 396.018 93.6127C396.718 96.6127 397.418 99.7127 398.118 102.813C398.418 104.013 398.818 105.213 399.818 106.213C401.018 101.313 402.118 96.3127 403.318 91.4127C404.418 86.8127 405.418 82.2127 406.618 77.6127C407.018 76.0127 408.118 75.1127 409.918 75.1127C414.518 75.1127 419.118 75.1127 423.618 75.1127C425.318 75.1127 426.218 75.8127 426.718 77.6127C427.918 82.7127 429.418 87.8127 430.718 92.9127C431.818 97.2127 432.818 101.513 433.918 105.913C433.718 106.113 433.818 106.513 433.918 106.813Z" fill="white"/>
<path d="M114.818 166.313C151.218 166.313 187.618 166.313 224.018 166.313C228.518 166.313 228.518 166.413 228.518 170.713C228.518 172.913 228.518 175.013 228.518 177.213C228.518 178.713 227.718 179.513 226.218 179.613C225.218 179.713 224.218 179.713 223.218 179.713C150.818 179.713 78.318 179.713 5.91803 179.713C4.91803 179.713 3.91803 179.713 2.91803 179.613C1.21803 179.413 0.218018 178.413 0.218018 176.613C0.218018 174.213 0.218018 171.813 0.218018 169.413C0.318018 167.413 1.31803 166.313 3.41803 166.313C4.61803 166.313 5.71803 166.313 6.91803 166.313C42.918 166.313 78.8181 166.313 114.818 166.313Z" fill="white"/>
<path d="M107.618 41.1128C73.718 41.1128 39.8181 41.1128 6.01807 41.1128C1.41807 41.1128 1.21802 40.9128 1.21802 36.3128C1.21802 34.4128 1.21802 32.5128 1.21802 30.6128C1.21802 28.5128 2.01805 27.3128 4.31805 27.4128C4.91805 27.4128 5.51807 27.4128 6.01807 27.4128C73.8181 27.4128 141.518 27.4128 209.318 27.4128C214.018 27.4128 214.518 27.9128 214.518 32.5128C214.518 34.0128 214.518 35.5128 214.518 37.0128C214.518 40.1128 213.618 41.0128 210.518 41.1128C208.918 41.1128 207.318 41.1128 205.818 41.1128C173.018 41.1128 140.318 41.1128 107.618 41.1128Z" fill="white"/>
<path d="M277.018 142.813C277.018 139.113 277.018 135.513 277.018 131.813C277.018 130.413 276.518 129.913 275.018 129.613C258.718 125.913 245.818 117.313 236.518 103.313C231.518 95.6127 229.118 87.1127 228.018 78.2127C227.618 75.1127 228.718 73.9127 231.818 73.8127C234.518 73.8127 237.318 73.9127 240.018 73.8127C242.318 73.7127 243.218 74.7127 243.418 77.0127C244.518 89.4127 249.718 99.7127 259.918 107.113C269.218 113.813 279.918 116.713 291.218 115.113C306.118 113.013 317.718 105.413 324.418 91.5127C326.518 87.2127 327.818 82.6127 327.818 77.6127C327.818 74.6127 328.718 73.8127 331.718 73.8127C334.518 73.8127 337.418 73.8127 340.218 73.8127C342.918 73.8127 343.918 74.6127 343.518 77.3127C342.918 81.7127 341.818 86.0127 340.918 90.4127C339.718 96.1127 336.718 101.013 333.418 105.613C327.918 113.513 320.818 119.513 312.318 123.913C307.118 126.613 301.518 128.413 295.818 129.813C295.218 130.013 294.418 131.313 294.418 132.113C294.318 139.113 294.318 146.113 294.318 153.013C294.318 156.413 294.118 156.613 290.818 156.613C287.418 156.613 284.018 156.613 280.618 156.613C277.118 156.613 276.818 156.413 276.818 152.713C277.018 149.513 277.018 146.113 277.018 142.813Z" fill="white"/>
<path d="M57.6179 102.513C57.6179 110.613 57.6179 118.613 57.6179 126.713C57.6179 129.813 57.1178 130.213 54.2178 130.313C50.0178 130.313 45.9178 130.313 41.7178 130.313C39.5178 130.313 38.5179 129.413 38.5179 127.213C38.6179 122.713 38.4179 118.213 38.5179 113.713C38.6179 111.613 37.7178 110.813 35.7178 110.813C32.3178 110.813 28.9179 110.813 25.5179 110.813C23.7179 110.813 23.0179 111.513 23.0179 113.313C23.1179 117.813 23.0179 122.313 23.0179 126.813C23.0179 129.713 22.5178 130.213 19.7178 130.313C15.5178 130.313 11.2179 130.313 7.01788 130.313C4.91788 130.313 3.81787 129.513 3.81787 127.213C3.91787 110.813 3.81787 94.4126 3.81787 78.1126C3.81787 75.9126 4.61785 74.9126 6.91785 75.0126C11.1178 75.1126 15.4179 75.0126 19.6179 75.0126C22.6179 75.0126 22.9179 75.4126 23.0179 78.3126C23.0179 83.2126 23.1179 88.1126 23.0179 93.0126C22.9179 95.4126 23.8179 96.0126 26.0179 95.9126C29.3179 95.8126 32.7179 95.8126 36.0179 95.9126C37.8179 95.9126 38.5179 95.3126 38.5179 93.4126C38.4179 88.4126 38.5179 83.4126 38.5179 78.4126C38.5179 75.2126 38.8178 74.9126 41.9178 74.9126C46.0178 74.9126 50.1179 74.9126 54.1179 74.9126C57.4179 74.9126 57.6179 75.1126 57.6179 78.5126C57.7179 86.5126 57.7179 94.5126 57.6179 102.513Z" fill="white"/>
<path d="M599.518 89.7126C599.518 84.6126 599.518 80.2126 599.518 75.9126C599.518 72.2126 599.818 71.9126 603.518 71.9126C607.418 71.9126 611.318 72.0126 615.218 71.9126C617.318 71.9126 618.218 72.6126 618.218 74.8126C618.218 92.3126 618.218 109.913 618.218 127.413C618.218 129.413 617.318 130.313 615.318 130.313C611.118 130.313 607.018 130.413 602.818 130.213C601.418 130.113 600.018 129.313 598.918 128.913C595.418 129.713 591.818 131.213 588.418 131.013C579.918 130.713 572.918 125.313 570.418 116.113C568.918 110.413 569.018 105.013 570.618 99.4126C572.218 94.0126 577.218 88.3126 583.718 86.6126C589.518 85.3126 594.318 86.2126 599.518 89.7126ZM599.318 108.913C599.418 100.613 590.618 97.7126 588.618 107.413C586.318 116.113 600.318 120.013 599.318 108.913Z" fill="white"/>
<path d="M483.218 131.413C473.518 130.613 465.718 128.213 460.918 120.513C458.018 115.913 457.218 110.813 457.918 105.313C458.718 99.4126 461.218 94.5126 466.018 91.1126C472.418 86.6126 479.518 85.2126 487.218 86.5126C491.718 87.3126 495.618 88.8126 499.218 91.5126C505.118 95.8126 508.218 107.313 506.318 114.013C504.218 121.613 499.818 126.613 492.818 129.313C489.418 130.513 485.718 130.813 483.218 131.413ZM476.418 108.513C476.618 108.613 476.718 108.713 476.918 108.713C476.218 114.813 483.318 118.713 486.718 113.113C491.018 102.713 479.518 95.2126 476.418 108.513Z" fill="white"/>
<path d="M184.118 131.113C176.718 130.513 168.418 127.713 163.918 118.313C161.518 113.213 161.018 107.913 162.618 102.313C164.718 94.8128 169.518 90.1128 176.518 87.6128C179.918 86.4128 183.718 85.8128 187.218 86.0128C193.718 86.3128 199.918 87.9128 204.818 92.8128C209.118 97.1128 210.718 102.213 210.918 108.013C211.118 116.413 207.918 123.213 200.518 127.513C196.218 130.013 191.418 131.313 184.118 131.113ZM191.818 108.213C191.218 100.213 182.418 98.3128 180.818 107.513C178.818 116.713 193.018 119.713 191.818 108.213Z" fill="white"/>
<path d="M97.018 113.813C99.418 116.113 101.918 118.513 104.318 120.813C105.518 121.913 105.718 122.813 104.318 124.113C101.318 126.913 98.018 129.213 93.818 129.813C90.618 130.313 87.418 131.213 84.318 131.013C76.318 130.513 69.418 127.613 65.018 120.313C62.918 116.713 62.318 112.813 62.318 108.813C62.118 100.513 65.018 93.6127 72.418 89.3127C77.918 86.1127 83.918 85.1127 90.318 86.4127C96.318 87.6127 101.118 90.2127 104.518 95.1127C107.818 99.9127 109.118 105.313 108.518 111.113C108.318 112.713 107.418 113.213 105.918 113.213C103.018 113.213 100.118 113.213 97.2179 113.213C97.1179 113.413 97.018 113.613 97.018 113.813ZM81.918 113.413C84.618 117.813 90.718 117.513 94.318 113.413C90.218 113.413 86.218 113.413 81.918 113.413ZM85.518 103.413C86.918 103.613 88.118 103.113 89.418 102.613C88.918 101.713 88.518 100.213 87.818 100.113C85.318 99.7127 82.4179 99.4127 81.7179 102.513C82.9179 103.013 84.118 103.613 85.518 103.413Z" fill="white"/>
<path d="M112.618 100.913C112.618 92.5127 112.618 84.1127 112.618 75.7127C112.618 72.3127 113.118 71.8127 116.518 71.8127C120.518 71.8127 124.518 71.8127 128.518 71.8127C131.318 71.8127 132.018 72.5127 132.018 75.1127C132.018 89.8127 132.018 104.513 132.018 119.213C132.018 121.913 131.718 124.513 131.618 127.113C131.518 129.213 130.518 130.113 128.518 130.113C124.318 130.113 120.218 130.213 116.018 130.113C113.218 130.013 112.518 129.313 112.518 126.413C112.518 118.013 112.518 109.413 112.618 100.913C112.518 100.913 112.618 100.913 112.618 100.913Z" fill="white"/>
<path d="M138.918 100.813C138.918 92.2127 138.918 83.7127 138.918 75.1127C138.918 72.1127 139.218 71.8127 142.218 71.8127C146.418 71.8127 150.518 71.8127 154.718 71.8127C156.818 71.8127 157.918 72.6127 157.918 74.9127C157.918 92.2127 157.818 109.513 157.918 126.813C157.918 129.213 156.818 130.213 154.618 130.213C150.318 130.313 145.918 130.213 141.618 130.213C139.418 130.213 138.818 128.913 138.818 126.913C139.018 118.313 138.918 109.513 138.918 100.813Z" fill="white"/>
<path d="M565.318 101.113C565.318 109.513 565.318 117.913 565.318 126.313C565.318 129.513 564.718 130.213 561.618 130.313C557.518 130.413 553.418 130.313 549.418 130.313C547.218 130.313 546.218 129.213 546.218 127.013C546.218 109.613 546.218 92.3126 546.218 74.9126C546.218 72.9126 547.118 71.9126 549.218 71.9126C553.418 72.0126 557.518 71.9126 561.718 71.9126C564.718 71.9126 565.318 72.5126 565.318 75.6126C565.318 84.1126 565.318 92.6126 565.318 101.113Z" fill="white"/>
<path d="M529.918 90.2127C532.918 88.8127 535.818 87.3127 538.918 86.1127C541.318 85.2127 542.818 86.3127 542.818 88.9127C542.918 92.5127 542.818 96.0127 542.818 99.6127C542.818 102.013 541.818 102.913 539.418 102.813C536.318 102.613 533.318 103.113 531.318 105.513C530.418 106.613 529.818 108.313 529.818 109.713C529.618 115.413 529.718 121.213 529.818 126.913C529.818 129.313 528.918 130.213 526.618 130.213C522.418 130.113 518.118 130.213 513.918 130.213C511.818 130.213 510.918 129.313 510.918 127.213C511.018 114.713 511.018 102.313 510.918 89.8127C510.918 87.5127 511.918 86.7127 514.118 86.8127C518.018 86.9127 521.918 86.8127 525.818 86.8127C529.418 86.9127 529.418 86.9127 529.918 90.2127Z" fill="white"/>
<path d="M244.318 180.313C244.318 178.313 244.318 176.313 244.318 174.313C244.318 172.413 245.218 171.213 247.118 171.213C251.318 171.113 255.418 171.113 259.618 171.213C261.518 171.213 262.418 172.513 262.418 174.413C262.418 178.213 262.518 182.013 262.418 185.913C262.318 188.513 261.318 189.513 258.718 189.513C255.018 189.513 251.418 189.613 247.718 189.513C245.018 189.513 244.318 188.813 244.318 186.013C244.318 184.113 244.318 182.213 244.318 180.313Z" fill="white"/>
<path d="M327.418 180.413C327.418 182.513 327.418 184.513 327.418 186.613C327.418 188.513 326.618 189.513 324.518 189.513C320.518 189.513 316.518 189.513 312.518 189.513C310.818 189.513 309.818 188.813 309.718 187.013C309.618 182.613 309.518 178.213 309.618 173.813C309.618 172.213 310.618 171.213 312.318 171.113C316.518 171.113 320.618 171.113 324.818 171.113C326.618 171.113 327.318 172.213 327.418 173.813C327.418 176.113 327.318 178.213 327.418 180.413C327.318 180.413 327.318 180.413 327.418 180.413Z" fill="white"/>
<path d="M294.518 180.513C294.518 182.513 294.518 184.513 294.518 186.513C294.518 188.513 293.718 189.613 291.518 189.613C287.618 189.513 283.718 189.513 279.818 189.613C277.918 189.613 277.018 188.813 277.018 186.913C277.018 182.613 277.018 178.313 277.018 173.913C277.018 172.313 277.818 171.213 279.618 171.213C283.718 171.213 287.718 171.213 291.818 171.213C293.718 171.213 294.518 172.213 294.518 174.013C294.518 176.213 294.518 178.313 294.518 180.513Z" fill="white"/>
</svg>
