<svg width="566" height="178" viewBox="0 0 566 178" fill="none" xmlns="http://www.w3.org/2000/svg">
<path d="M122.7 75.69C128.3 69.79 134.6 67.69 141.7 68.39C148.8 69.09 154.5 72.49 158.3 78.19C161.9 75.59 165 72.79 168.5 70.69C172.8 68.19 177.6 67.79 182.5 68.49C190.2 69.69 196 73.59 199.8 80.49C202 84.39 202.6 88.69 202.6 92.99C202.7 103.89 202.7 114.79 202.7 125.69C202.7 128.39 202 129.09 199.3 129.19C194.1 129.29 189 129.29 183.8 129.19C180.8 129.09 180.3 128.49 180.3 125.39C180.3 115.69 180.3 105.89 180.3 96.19C180.3 92.29 178 89.09 174.7 88.39C170 87.29 165.2 88.89 163.7 92.49C162.9 94.29 162.9 96.59 162.8 98.59C162.7 107.29 162.8 116.09 162.8 124.79C162.8 128.49 162.1 129.29 158.3 129.29C153.6 129.29 149 129.39 144.3 129.29C140.8 129.19 140.3 128.59 140.3 125.19C140.3 115.69 140.3 106.19 140.3 96.79C140.3 93.59 139.5 90.79 136.4 89.29C131.1 86.69 122.8 88.29 122.8 96.39C122.8 105.99 122.8 115.49 122.7 125.09C122.7 128.59 122 129.29 118.5 129.39C113.7 129.39 108.8 129.39 104 129.39C100.8 129.39 100 128.49 100 125.39C100 107.69 100 89.99 100 72.29C100 70.19 101.1 69.09 103 69.09C108.6 68.99 114.2 68.99 119.7 69.09C121.6 69.09 122.8 70.19 122.7 72.29C122.7 72.99 122.7 73.99 122.7 75.69Z" fill="white"/>
<path d="M77.4999 76.7898C74.8999 76.7898 72.2999 76.6898 69.7999 76.7898C67.3999 76.8898 65.8999 75.9898 65.1999 73.5898C64.5999 71.5898 63.0999 70.4898 60.9999 70.2898C58.8999 70.0898 57.1999 70.4898 56.3999 72.6898C55.5999 74.8898 56.2999 76.7898 57.9999 77.9898C60.0999 79.3898 62.4999 80.2898 64.8999 81.3898C70.3999 83.8898 76.1999 85.8898 81.3999 88.7898C89.4999 93.1898 93.2999 104.49 90.2999 113.49C87.6999 121.09 82.4999 125.79 75.3999 128.29C68.6999 130.59 61.6999 130.89 54.5999 129.19C47.8999 127.59 42.1999 124.89 37.5999 119.69C34.6999 116.39 33.3999 112.39 32.4999 108.29C31.9999 105.99 33.1999 104.59 35.5999 104.49C41.3999 104.39 47.1999 104.39 53.0999 104.49C55.3999 104.49 55.9999 106.39 56.5999 108.09C57.5999 110.99 60.8999 112.79 63.8999 112.19C65.7999 111.79 67.0999 110.79 67.2999 108.79C67.5999 106.49 66.7999 104.49 64.7999 103.49C61.0999 101.79 57.1999 100.29 53.3999 98.7898C47.5999 96.4898 41.6999 94.3898 37.2999 89.4898C30.1999 81.8898 30.2999 68.4898 37.3999 60.9898C41.8999 56.1898 47.4999 53.3898 53.9999 52.8898C58.5999 52.5898 63.2999 52.3898 67.8999 52.9898C78.6999 54.3898 87.0999 61.1898 89.4999 72.5898C90.0999 75.5898 89.4999 76.4898 86.2999 76.5898C83.3999 76.7898 80.4999 76.6898 77.4999 76.7898C77.4999 76.6898 77.4999 76.6898 77.4999 76.7898Z" fill="white"/>
<path d="M467.6 104.09C469.7 97.6899 471.7 91.6899 473.6 85.6899C475.4 80.0899 476.9 74.3899 478.7 68.7899C480 64.4899 481.5 60.0899 482.9 55.7899C483.5 53.9899 484.7 53.2899 486.5 53.2899C492.2 53.2899 497.8 53.2899 503.5 53.2899C506 53.2899 507 54.5899 506.1 56.9899C502.8 66.4899 499.5 75.8899 496.3 85.3899C492.1 97.7899 487.9 110.09 483.7 122.49C483.2 123.89 483 125.59 482.2 126.69C481.3 127.89 479.8 129.29 478.5 129.39C471.2 129.69 463.9 129.49 456.5 129.49C453.4 129.49 452.7 127.09 452 124.89C449.5 117.79 447.1 110.69 444.7 103.59C442.9 98.2899 441.3 92.9899 439.5 87.7899C437.3 81.4899 435 75.1899 432.8 68.8899C431.3 64.6899 429.8 60.4899 428.5 56.1899C427.9 54.3899 429.1 53.2899 430.7 53.2899C436.9 53.1899 443 53.0899 449.2 53.3899C450.3 53.3899 451.8 54.8899 452.2 55.9899C454.5 62.7899 456.5 69.6899 458.7 76.4899C461.5 85.2899 464.3 94.1899 467.2 102.99C467.1 103.39 467.3 103.69 467.6 104.09Z" fill="white"/>
<path d="M316.9 103.79C311.6 103.79 306.2 103.79 300.9 103.79C298.2 103.79 297.4 105.19 298.5 107.59C300.9 112.59 308.1 113.49 311.5 108.99C312.8 107.19 314.3 106.69 316.3 106.69C321.7 106.79 327.1 106.69 332.5 106.69C335.2 106.69 336.2 107.99 335.2 110.49C332.3 118.19 327.2 123.79 319.6 127.29C313.6 129.99 307.2 130.89 300.9 129.69C289.3 127.59 280.6 121.49 277.4 109.59C273.6 95.6899 276.3 82.8899 286.5 74.6899C294.6 68.1899 304 66.8899 314 68.7899C321.4 70.1899 327.3 73.9899 331.6 79.9899C336.1 86.1899 337.6 93.3899 336.8 100.99C336.6 103.29 334.7 103.59 332.9 103.59C327.7 103.79 322.3 103.79 316.9 103.79ZM305.9 93.2899C308 93.2899 310.1 93.2899 312.1 93.2899C313.7 93.2899 314.3 92.4899 313.8 91.0899C313.5 90.1899 313.1 89.1899 312.4 88.4899C308.5 84.4899 300.9 85.7899 298.4 90.7899C297.7 92.2899 298 93.1899 299.8 93.1899C301.9 93.2899 303.9 93.2899 305.9 93.2899Z" fill="white"/>
<path d="M393.8 53.2898C402.8 53.2898 411.8 53.2898 420.8 53.2898C424.2 53.2898 425.1 54.1898 425.1 57.5898C425.1 61.0898 425.1 64.5898 425.1 68.0898C425.1 70.9898 424.2 71.7898 421.3 71.7898C416.7 71.7898 412.1 71.8898 407.6 71.7898C405.3 71.6898 404.6 72.3898 404.6 74.6898C404.7 91.4898 404.6 108.29 404.6 125.09C404.6 129.39 404.3 129.69 400.1 129.69C395.6 129.69 391.1 129.69 386.6 129.69C383.3 129.69 382.7 128.99 382.7 125.69C382.7 108.89 382.7 92.0898 382.7 75.2898C382.7 71.8898 382.7 71.8898 379.3 71.7898C375 71.7898 370.6 71.6898 366.3 71.7898C364 71.8898 362.9 70.9898 363 68.5898C363.1 64.6898 363 60.7898 363 56.8898C363 54.0898 363.7 53.3898 366.6 53.3898C375.6 53.2898 384.7 53.2898 393.8 53.2898Z" fill="white"/>
<path d="M246 89.5899C246 77.7899 246 65.9899 246 54.1899C246 50.5899 246.3 50.1899 250 50.1899C254.9 50.1899 259.8 50.1899 264.7 50.1899C267.5 50.1899 268.1 50.7899 268.1 53.5899C268.1 77.6899 268.1 101.79 268.1 125.89C268.1 128.29 267 129.19 264.8 129.19C259.6 129.19 254.5 129.19 249.3 129.19C246.5 129.19 246 128.59 246 125.79C246 113.69 246 101.59 246 89.5899Z" fill="white"/>
<path d="M213 98.9898C213 90.2898 213 81.5898 213 72.7898C213 69.2898 213.6 68.6898 217 68.7898C221.8 68.8898 226.6 68.9898 231.5 69.0898C234.5 69.1898 235.1 69.6898 235.1 72.5898C235.1 90.3898 235.1 108.19 235.1 125.89C235.1 127.99 234.2 128.99 232.2 129.09C226.6 129.19 221.1 129.19 215.5 129.09C213.4 129.09 213 127.69 213 125.89C213 116.89 213 107.99 213 98.9898Z" fill="white"/>
<path d="M549.9 42.2899C550.3 50.3899 542.9 57.6899 534.5 57.5899C526.2 57.5899 519 50.8899 518.9 41.8899C518.7 33.9899 526.9 26.0899 534.7 26.1899C542.2 26.2899 550.9 33.9899 549.9 42.2899Z" fill="white"/>
<path d="M223.9 64.3898C220.4 64.5898 217.4 63.7898 214.7 61.3898C209.7 57.0898 209.8 48.5898 215.9 44.3898C220.9 40.8898 231.7 41.0898 235.5 48.2898C238.1 53.3898 236.7 59.8898 231.7 62.5898C229.4 63.7898 226.6 64.2898 224.1 64.9898C224 64.7898 223.9 64.5898 223.9 64.3898Z" fill="white"/>
</svg>
