<svg width="628" height="73" viewBox="0 0 628 73" fill="none" xmlns="http://www.w3.org/2000/svg">
<path d="M24.0137 0.276001C30.7137 0.276001 37.3137 0.276001 44.0137 0.276001C47.6137 0.276001 48.2137 0.975998 48.2137 4.476C48.2137 8.476 48.2137 12.476 48.2137 16.476C48.2137 20.176 47.8137 20.576 44.0137 20.576C37.1137 20.576 30.2138 20.576 23.3138 20.576C21.6138 20.576 20.6137 20.976 20.6137 22.876C20.6137 25.476 20.9138 25.476 23.4138 24.676C32.9138 21.576 43.5137 23.876 48.7137 33.876C51.4137 39.176 52.1137 44.776 51.4137 50.476C50.2137 59.376 45.8137 66.276 37.1137 69.476C31.0137 71.676 24.8138 71.876 18.3138 70.176C12.1138 68.576 6.9137 65.876 3.6137 60.576C1.8137 57.676 1.0137 54.076 0.113702 50.676C-0.386298 48.776 0.813678 47.576 2.71368 47.576C8.41368 47.476 14.0137 47.476 19.7137 47.676C20.7137 47.676 21.8137 48.876 22.6137 49.776C24.7137 52.376 28.3137 52.176 29.2137 48.976C29.7137 47.176 29.3137 44.976 28.7137 43.076C28.2137 41.276 26.2137 41.376 24.6137 41.576C24.0137 41.676 23.3137 41.976 23.0137 42.476C21.7137 44.376 19.9138 44.676 17.8138 44.576C13.1138 44.476 8.51378 44.576 3.81378 44.576C0.613775 44.576 0.113702 44.076 0.113702 40.976C0.113702 28.676 0.113702 16.376 0.113702 4.076C0.113702 1.076 0.713678 0.375999 3.71368 0.375999C10.3137 0.275999 17.1137 0.276001 24.0137 0.276001Z" fill="white"/>
<path d="M140.114 45.776C142.714 37.376 145.314 29.176 147.814 20.876C149.414 15.776 150.914 10.576 152.414 5.47596C152.914 3.77596 153.714 3.07597 155.314 3.07597C161.514 3.07597 167.814 3.07597 174.014 3.07597C175.814 3.07597 176.414 3.97597 176.014 5.67597C175.414 7.87597 174.814 10.176 174.114 12.276C171.714 19.576 169.214 26.776 166.714 33.976C164.414 40.576 162.014 47.176 159.814 53.776C158.114 58.676 156.514 63.576 155.014 68.576C154.414 70.476 153.414 71.376 151.514 71.376C143.814 71.376 136.014 71.376 128.314 71.376C125.414 71.376 125.114 68.976 124.414 67.176C121.414 58.576 118.514 49.976 115.614 41.376C113.414 34.676 111.214 27.876 109.014 21.176C107.314 16.076 105.514 11.076 103.714 5.97596C103.014 3.97596 103.414 2.97596 105.514 2.97596C111.914 2.87596 118.314 2.87597 124.714 3.07597C125.714 3.07597 127.214 4.27597 127.514 5.27597C129.214 10.376 130.714 15.576 132.214 20.676C133.414 24.676 134.414 28.776 135.714 32.876C136.914 36.876 138.314 40.876 139.614 44.876C139.714 45.176 139.914 45.476 140.114 45.776Z" fill="white"/>
<path d="M189.314 36.976C189.314 26.976 189.314 17.076 189.314 7.07605C189.314 3.47605 189.714 3.07605 193.314 3.07605C206.014 3.07605 218.814 3.07605 231.514 3.07605C235.314 3.07605 235.714 3.47605 235.714 7.17605C235.714 10.4761 235.714 13.7761 235.714 17.1761C235.714 20.4761 235.314 20.876 231.914 20.876C226.114 20.876 220.214 20.976 214.414 20.876C211.714 20.776 211.814 22.3761 211.814 24.1761C211.814 26.0761 211.614 27.7761 214.514 27.6761C219.414 27.4761 224.314 27.5761 229.214 27.6761C232.114 27.6761 232.714 28.2761 232.814 31.1761C232.814 34.6761 232.714 38.1761 232.814 41.6761C232.914 44.2761 231.714 45.076 229.414 45.076C224.614 45.076 219.714 45.176 214.914 45.076C212.514 44.976 211.514 45.7761 211.814 48.1761C211.914 48.8761 211.914 49.4761 211.814 50.1761C211.614 52.1761 212.514 52.7761 214.414 52.7761C219.914 52.6761 225.414 52.7761 230.914 52.7761C235.214 52.7761 235.714 53.276 235.714 57.476C235.714 61.076 235.714 64.5761 235.714 68.1761C235.714 70.4761 234.714 71.4761 232.314 71.4761C219.114 71.4761 205.814 71.4761 192.614 71.4761C189.914 71.4761 189.314 70.6761 189.314 67.6761C189.314 57.3761 189.314 47.176 189.314 36.976Z" fill="white"/>
<path d="M450.714 37.076C450.714 26.976 450.714 16.976 450.714 6.87604C450.714 3.47604 451.014 3.17604 454.414 3.17604C462.014 3.17604 469.614 3.07604 477.114 3.17604C487.514 3.37604 496.414 7.17603 502.914 15.476C506.014 19.376 508.114 23.676 508.614 28.676C508.914 32.076 509.814 35.576 509.614 38.976C508.914 50.476 504.614 60.176 494.114 66.176C490.914 67.976 487.314 68.976 483.714 69.876C473.814 72.676 463.714 70.676 453.714 71.276C451.114 71.376 450.714 69.876 450.714 67.776C450.814 57.676 450.714 47.376 450.714 37.076ZM463.314 37.376C463.314 44.076 463.314 50.876 463.314 57.576C463.314 58.676 463.114 60.076 464.914 60.076C472.114 60.176 479.414 60.576 486.114 57.276C491.314 54.776 494.314 50.676 495.914 45.176C497.514 39.776 497.314 34.476 495.914 28.976C493.714 20.476 486.714 15.776 479.514 14.776C475.114 14.176 470.514 14.476 466.014 14.276C463.814 14.176 463.114 15.076 463.114 17.176C463.314 23.876 463.314 30.576 463.314 37.376Z" fill="white"/>
<path d="M627.714 37.076C627.114 49.176 622.614 58.876 612.814 65.976C606.414 70.576 599.214 71.876 591.414 71.676C580.414 71.376 572.214 66.376 565.814 57.776C560.814 50.976 559.314 43.176 559.614 34.976C559.914 27.076 562.314 19.876 567.514 13.776C575.414 4.47599 585.714 0.675986 597.514 2.17599C610.914 3.77599 620.414 11.376 625.114 24.176C626.614 28.376 626.914 32.776 627.714 37.076ZM614.314 35.676C614.814 31.676 613.314 26.876 610.514 22.376C606.414 15.876 599.914 13.576 592.614 13.776C586.714 13.876 581.314 15.776 577.514 20.676C571.014 29.076 570.914 38.376 574.314 47.876C578.614 60.076 593.714 63.076 603.414 57.876C611.614 53.476 614.414 45.976 614.314 35.676Z" fill="white"/>
<path d="M390.114 27.376C390.114 33.976 390.014 40.676 390.114 47.276C390.314 57.876 400.414 62.276 409.114 59.176C415.314 56.976 417.514 51.976 417.614 46.176C417.914 33.276 417.714 20.376 417.714 7.576C417.714 3.376 417.814 3.276 422.014 3.276C423.914 3.276 425.814 3.276 427.714 3.276C429.514 3.276 430.414 4.176 430.414 6.076C430.414 18.976 430.714 31.876 430.214 44.676C429.914 52.576 428.014 60.276 421.414 65.776C417.414 69.076 412.914 71.476 407.514 71.576C404.614 71.576 401.714 71.776 398.814 71.476C390.314 70.576 384.114 66.176 380.314 58.676C377.914 54.076 377.114 48.976 377.214 43.776C377.314 31.576 377.214 19.376 377.214 7.176C377.214 3.476 377.414 3.276 381.214 3.276C382.814 3.276 384.414 3.276 385.914 3.276C389.214 3.276 389.714 3.776 389.714 6.976C389.714 13.776 389.714 20.576 389.714 27.376C389.914 27.376 390.014 27.376 390.114 27.376Z" fill="white"/>
<path d="M276.414 71.576C269.414 72.176 263.314 70.076 258.014 65.576C254.814 62.776 252.614 59.276 251.614 55.176C250.814 52.076 251.614 51.176 254.814 51.176C257.014 51.176 259.314 51.176 261.514 51.176C263.014 51.176 263.814 51.776 264.414 53.276C266.914 59.976 271.414 62.576 278.614 61.576C281.814 61.176 284.514 58.376 285.514 54.576C286.214 51.976 284.614 47.576 281.914 46.176C278.614 44.376 275.114 42.876 271.514 41.576C264.914 39.076 258.114 37.276 253.714 31.076C251.314 27.676 251.114 24.076 251.114 20.176C251.014 14.076 253.614 9.27601 258.714 6.27601C261.814 4.37601 265.414 2.87601 269.014 2.37601C278.314 1.07601 287.014 2.77601 293.114 10.676C294.814 12.876 295.814 15.576 296.914 18.176C297.614 20.076 296.514 21.476 294.514 21.576C291.814 21.676 289.214 21.676 286.514 21.576C284.314 21.476 283.714 19.576 282.914 17.876C281.314 14.376 278.514 12.776 274.814 12.676C271.114 12.576 267.214 12.176 265.214 16.176C262.614 21.376 264.314 26.176 270.114 28.676C275.214 30.876 280.614 32.776 285.914 34.676C294.914 37.876 300.414 46.776 298.514 56.076C297.114 62.776 293.314 67.876 286.514 70.076C283.314 71.176 279.814 71.576 276.414 72.176C276.414 71.976 276.414 71.776 276.414 71.576Z" fill="white"/>
<path d="M90.4137 37.2761C90.4137 47.3761 90.4137 57.376 90.4137 67.476C90.4137 71.076 90.0137 71.4761 86.4137 71.4761C81.4137 71.4761 76.4137 71.4761 71.4137 71.4761C68.5137 71.4761 67.5137 70.6761 67.5137 67.8761C67.5137 47.2761 67.5137 26.676 67.5137 6.07605C67.5137 4.17605 68.4137 3.07605 70.4137 3.07605C76.2137 3.07605 82.1137 3.07605 87.9137 3.07605C90.1137 3.07605 90.5137 4.37605 90.5137 6.17605C90.4137 16.4761 90.4137 26.8761 90.4137 37.2761Z" fill="white"/>
<path d="M343.414 41.7761C343.414 50.3761 343.414 58.876 343.414 67.476C343.414 70.776 342.814 71.3761 339.414 71.3761C337.514 71.3761 335.614 71.3761 333.714 71.3761C331.814 71.4761 331.014 70.4761 330.914 68.6761C330.914 67.8761 330.914 66.9761 330.914 66.1761C330.914 49.5761 330.914 32.9761 330.914 16.2761C330.914 13.8761 330.314 12.876 327.714 12.976C323.614 13.176 319.514 12.976 315.514 13.076C313.314 13.076 312.414 12.176 312.314 9.97605C312.014 3.17605 312.014 3.07605 318.714 3.07605C331.814 3.07605 344.814 3.07605 357.914 3.07605C361.514 3.07605 361.814 3.27605 361.814 6.87605C361.814 13.476 362.214 13.076 355.814 13.076C352.814 13.076 349.814 13.076 346.814 13.076C343.414 13.076 343.414 13.076 343.414 16.576C343.314 25.076 343.314 33.3761 343.414 41.7761Z" fill="white"/>
<path d="M540.714 37.076C540.714 47.076 540.714 56.976 540.714 66.976C540.714 70.976 540.214 71.376 536.314 71.476C534.714 71.476 533.114 71.376 531.614 71.476C529.414 71.576 528.614 70.576 528.614 68.476C528.614 63.776 528.614 58.976 528.614 54.276C528.614 38.476 528.614 22.676 528.614 6.97602C528.614 3.47602 528.814 3.27603 532.214 3.27603C533.914 3.27603 535.714 3.37603 537.414 3.27603C539.814 3.17603 540.714 4.27602 540.714 6.57602C540.714 13.776 540.714 21.076 540.714 28.276C540.714 31.076 540.714 34.076 540.714 37.076Z" fill="white"/>
</svg>
