<svg width="236" height="35" viewBox="0 0 236 35" fill="none" xmlns="http://www.w3.org/2000/svg">
<path d="M150.059 5.22421C158.929 5.54101 168.826 2.42581 167.691 15.0978C167.528 19.797 169.151 28.8258 162.498 29.4594C156.387 29.6178 150.275 29.829 144.164 29.9346C131.562 30.6738 131.183 25.3938 131.562 14.6754C131.508 2.42581 141.297 5.54101 150.059 5.22421ZM146.489 21.0642C154.981 16.7346 154.981 17.8962 146.489 13.5666C146.489 16.1538 146.489 18.477 146.489 21.0642Z" fill="black"/>
<path d="M235.784 17.3682C236.216 24.285 236.108 32.6802 227.076 33.3138C218.206 32.9442 202.738 36.6402 202.792 23.7042C203.17 15.7842 199.763 2.32017 211.391 1.31697C226.265 1.36977 237.568 -2.16783 235.784 17.3682ZM219.234 4.96017C202.521 3.21777 207.389 11.7186 206.524 23.3346C206.794 33.1026 219.125 28.5618 225.561 29.6706C235.405 29.4066 230.862 17.2626 231.998 11.0322C232.16 4.06257 224.318 4.85457 219.234 4.96017Z" fill="black"/>
<path d="M6.08385 26.1319C5.543 24.2839 7.43598 19.1095 4.62355 19.1623C0.999848 19.2151 0.945763 19.4791 0.999848 15.5719C0.945763 13.7767 0.999848 12.1927 3.32551 12.3511C6.40836 12.3511 6.02977 12.6151 6.13794 9.55272C5.81343 4.48392 9.65347 0.629522 14.9538 0.999122C16.3059 1.15752 19.1725 0.576722 19.2806 2.47752C19.2806 6.59592 20.0378 7.65192 15.2242 7.33512C14.7375 7.38792 13.9262 7.70472 13.8721 7.96872C13.9803 9.28872 12.7904 12.0343 14.6834 12.2983C16.1978 12.5095 19.3888 11.6119 18.9561 14.0935C18.253 15.7831 19.3347 19.2151 16.6845 19.2151C13.6017 19.2679 13.6017 19.3207 13.6017 22.3303C12.9527 25.1287 15.4406 33.8935 11.3842 33.8935C4.51538 34.8967 6.24611 30.9367 6.08385 26.1319Z" fill="black"/>
<path d="M228.212 17.315C227.725 28.667 210.472 28.5086 210.472 17.315C210.526 5.96301 227.779 6.01581 228.212 17.315ZM214.636 17.2622C214.041 23.5454 224.48 23.3342 224.047 17.315C224.48 11.4014 214.095 11.243 214.636 17.2622Z" fill="black"/>
<path d="M227.941 6.70225C231.078 6.38545 230.7 11.4542 227.887 11.243C224.859 11.243 224.642 6.54385 227.941 6.70225Z" fill="black"/>
<path d="M72.1518 24.871C69.1771 24.343 66.7433 21.3334 67.6087 19.6966C66.6892 17.5846 62.5787 14.5222 65.932 12.9382C64.6881 10.615 63.9849 8.02783 65.6075 5.75743C66.3106 3.85663 73.0172 12.2518 78.1553 11.6182C79.9941 11.8294 79.0206 6.60223 82.9147 4.85983C89.8917 1.21663 88.3774 7.28863 95.787 4.85983C95.9493 5.81023 95.6788 6.65503 94.9757 7.28863C95.5707 7.39423 96.1115 7.44703 96.6524 7.55263C95.6248 10.351 93.5695 10.4038 93.6236 14.0998C93.1368 19.1686 90.703 23.1814 86.9171 26.455C81.779 31.2598 69.0149 33.055 64.2554 27.4582C64.3095 27.1942 64.9044 26.8774 65.2289 26.8246C67.7709 26.7718 70.0966 26.2966 72.3681 25.2406C72.26 25.135 72.2059 25.0294 72.1518 24.871Z" fill="black"/>
</svg>
