<?xml version="1.0" encoding="UTF-8"?>
<svg width="36px" height="30px" viewBox="0 0 36 30" version="1.1" xmlns="http://www.w3.org/2000/svg" xmlns:xlink="http://www.w3.org/1999/xlink">
    <title>Group 6</title>
    <defs>
        <polygon id="path-1" points="0.375945293 0.107774261 26.1497143 0.107774261 26.1497143 18 0.375945293 18"></polygon>
    </defs>
    <g id="Page-1" stroke="none" stroke-width="1" fill="rgb(255, 166, 0);" fill-rule="evenodd">
        <g id="Artboard" transform="translate(-5045.000000, -1774.000000)">
            <g id="Group-6" transform="translate(5045.000000, 1774.000000)">
                <g id="Group-3" transform="translate(8.571429, 11.696100)">
                    <mask id="mask-2" fill="white">
                        <use xlink:href="#path-1"></use>
                    </mask>
                    <g id="Clip-2"></g>
                    <path d="M11.5456714,11.9478429 C8.16852857,12.8495571 5.16938571,12.5307 2.24524286,11.4279857 C1.23981429,11.0482714 0.0698142857,10.5991286 0.4491,9.21912857 C0.829242857,7.83784286 1.9431,8.37955714 2.92538571,8.52012857 C5.59581429,8.90241429 8.26795714,9.43298571 10.9739571,8.67355714 C12.2232429,8.32298571 13.4155286,7.88584286 14.3369571,6.95455714 C15.4799571,5.79912857 15.2699571,4.63641429 13.8072429,3.89584286 C12.8489571,3.41027143 11.7981,3.24655714 10.7412429,3.07984286 C9.89867143,2.94655714 9.3081,2.4087 9.33338571,1.48255714 C9.35995714,0.502414286 10.0529571,0.0939857143 10.9092429,0.108128571 C15.5472429,0.183985714 19.9709571,1.13712857 23.6519571,4.11055714 C26.3815286,6.31598571 26.8756714,10.1225571 25.1271,13.2177 C23.9673857,15.2705571 22.2432429,16.6998429 20.1016714,17.6512714 C18.7936714,18.2324143 17.7775286,18.0639857 16.4043857,17.3195571 C15.4028143,16.7761286 13.7103857,17.5377 13.5715286,15.4968429 C13.5398143,15.0322714 13.0658143,15.1308429 12.7452429,15.0288429 C11.3322429,14.5788429 10.8003857,13.6844143 11.5456714,11.9478429" id="Fill-1" fill="#020304" mask="url(#mask-2)"></path>
                </g>
                <path d="M13.4968714,17.8630714 C10.4840143,17.6312143 7.41072857,16.8357857 4.55215714,15.3053571 C-0.728271429,12.4785 -1.5327,6.75192857 2.75858571,2.56907143 C3.83515714,1.5195 5.08144286,0.714214286 6.50387143,0.190928571 C8.33258571,-0.481928571 11.6360143,0.706928571 12.5411571,2.46278571 C12.7923,2.94964286 13.1407286,3.00878571 13.5405857,3.08635714 C14.2438714,3.2235 14.9565857,3.72621429 14.8785857,4.28078571 C14.5914429,6.31778571 15.8338714,5.80521429 16.9331571,5.70664286 C19.4484429,5.48078571 21.9161571,5.70492857 24.2617286,6.70607143 C25.1300143,7.07721429 26.0060143,7.56835714 25.7317286,8.7375 C25.4188714,10.0716429 24.2994429,9.74464286 23.4555857,9.57964286 C20.9870143,9.0975 18.5235857,8.88792857 16.0168714,9.18878571 C14.7148714,9.34521429 13.5487286,9.81407143 12.4631571,10.5173571 C11.6484429,11.0449286 11.0043,11.6972143 11.1440143,12.7716429 C11.2768714,13.7929286 12.0941571,14.1160714 12.9243,14.3646429 C13.5315857,14.5463571 14.1594429,14.6646429 14.7830143,14.7855 C15.8038714,14.9830714 16.8431571,15.2415 16.7955857,16.5430714 C16.7415857,18.0087857 15.5578714,17.8322143 14.5695857,17.8617857 C14.2845857,17.8703571 13.9987286,17.8630714 13.4968714,17.8630714" id="Fill-4" fill="#020304"></path>
            </g>
        </g>
    </g>
</svg>